<svg width="1778" height="112" viewBox="0 0 1778 112" fill="none" xmlns="http://www.w3.org/2000/svg">
<g clip-path="url(#paint0_diamond_6896_1613_clip_path)" data-figma-skip-parse="true"><g transform="matrix(1.98627 0.358188 -0.397902 1.78802 566.464 -177.521)"><rect x="0" y="0" width="618.131" height="210.895" fill="url(#paint0_diamond_6896_1613)" opacity="1" shape-rendering="crispEdges"/><rect x="0" y="0" width="618.131" height="210.895" transform="scale(1 -1)" fill="url(#paint0_diamond_6896_1613)" opacity="1" shape-rendering="crispEdges"/><rect x="0" y="0" width="618.131" height="210.895" transform="scale(-1 1)" fill="url(#paint0_diamond_6896_1613)" opacity="1" shape-rendering="crispEdges"/><rect x="0" y="0" width="618.131" height="210.895" transform="scale(-1)" fill="url(#paint0_diamond_6896_1613)" opacity="1" shape-rendering="crispEdges"/></g></g><path d="M0 33.579C0 15.2983 14.434 0.478882 32.2393 0.478882H1710.3C1728.1 0.478882 1742.54 15.2983 1742.54 33.579V78.264C1742.54 96.5447 1728.1 111.364 1710.3 111.364H32.2394C14.4341 111.364 0 96.5447 0 78.264V33.579Z" data-figma-gradient-fill="{&#34;type&#34;:&#34;GRADIENT_DIAMOND&#34;,&#34;stops&#34;:[{&#34;color&#34;:{&#34;r&#34;:0.16673327982425690,&#34;g&#34;:0.25094097852706909,&#34;b&#34;:0.40999996662139893,&#34;a&#34;:1.0},&#34;position&#34;:0.0},{&#34;color&#34;:{&#34;r&#34;:0.012944246642291546,&#34;g&#34;:0.27730971574783325,&#34;b&#34;:0.77666664123535156,&#34;a&#34;:1.0},&#34;position&#34;:1.0}],&#34;stopsVar&#34;:[{&#34;color&#34;:{&#34;r&#34;:0.16673327982425690,&#34;g&#34;:0.25094097852706909,&#34;b&#34;:0.40999996662139893,&#34;a&#34;:1.0},&#34;position&#34;:0.0},{&#34;color&#34;:{&#34;r&#34;:0.012944246642291546,&#34;g&#34;:0.27730971574783325,&#34;b&#34;:0.77666664123535156,&#34;a&#34;:1.0},&#34;position&#34;:1.0}],&#34;transform&#34;:{&#34;m00&#34;:3972.5410156250,&#34;m01&#34;:-795.80480957031250,&#34;m02&#34;:-1021.9042358398438,&#34;m10&#34;:716.37701416015625,&#34;m11&#34;:3576.048339843750,&#34;m12&#34;:-2323.7336425781250},&#34;opacity&#34;:1.0,&#34;blendMode&#34;:&#34;NORMAL&#34;,&#34;visible&#34;:true}"/>
<g clip-path="url(#paint1_diamond_6896_1613_clip_path)" data-figma-skip-parse="true"><g transform="matrix(0.875647 -0.108336 0.0406855 0.182279 1019.62 122.835)"><rect x="0" y="0" width="1131.64" height="1332.68" fill="url(#paint1_diamond_6896_1613)" opacity="1" shape-rendering="crispEdges"/><rect x="0" y="0" width="1131.64" height="1332.68" transform="scale(1 -1)" fill="url(#paint1_diamond_6896_1613)" opacity="1" shape-rendering="crispEdges"/><rect x="0" y="0" width="1131.64" height="1332.68" transform="scale(-1 1)" fill="url(#paint1_diamond_6896_1613)" opacity="1" shape-rendering="crispEdges"/><rect x="0" y="0" width="1131.64" height="1332.68" transform="scale(-1)" fill="url(#paint1_diamond_6896_1613)" opacity="1" shape-rendering="crispEdges"/></g></g><path d="M1252.96 1.93749C1336.29 17.511 1461.82 28.3929 1536.63 25.3324C1606.67 22.4671 1675.32 4.1436 1688.45 0.478882H1262.45C1259.15 0.478882 1255.96 0.989283 1252.96 1.93749Z" data-figma-gradient-fill="{&#34;type&#34;:&#34;GRADIENT_DIAMOND&#34;,&#34;stops&#34;:[{&#34;color&#34;:{&#34;r&#34;:0.11764705926179886,&#34;g&#34;:0.16470588743686676,&#34;b&#34;:0.22745098173618317,&#34;a&#34;:1.0},&#34;position&#34;:0.11477105319499969},{&#34;color&#34;:{&#34;r&#34;:0.0,&#34;g&#34;:0.21176470816135406,&#34;b&#34;:0.61176472902297974,&#34;a&#34;:1.0},&#34;position&#34;:1.0}],&#34;stopsVar&#34;:[{&#34;color&#34;:{&#34;r&#34;:0.11764705926179886,&#34;g&#34;:0.16470588743686676,&#34;b&#34;:0.22745098173618317,&#34;a&#34;:1.0},&#34;position&#34;:0.11477105319499969},{&#34;color&#34;:{&#34;r&#34;:0.0,&#34;g&#34;:0.21176470816135406,&#34;b&#34;:0.61176472902297974,&#34;a&#34;:1.0},&#34;position&#34;:1.0}],&#34;transform&#34;:{&#34;m00&#34;:1751.2949218750,&#34;m01&#34;:81.371070861816406,&#34;m02&#34;:103.28589630126953,&#34;m10&#34;:-216.67230224609375,&#34;m11&#34;:364.55880737304688,&#34;m12&#34;:48.891761779785156},&#34;opacity&#34;:1.0,&#34;blendMode&#34;:&#34;NORMAL&#34;,&#34;visible&#34;:true}"/>
<g clip-path="url(#paint2_diamond_6896_1613_clip_path)" data-figma-skip-parse="true"><g transform="matrix(0.875647 -0.108336 0.0406855 0.182279 1019.62 122.835)"><rect x="0" y="0" width="1131.64" height="1332.68" fill="url(#paint2_diamond_6896_1613)" opacity="1" shape-rendering="crispEdges"/><rect x="0" y="0" width="1131.64" height="1332.68" transform="scale(1 -1)" fill="url(#paint2_diamond_6896_1613)" opacity="1" shape-rendering="crispEdges"/><rect x="0" y="0" width="1131.64" height="1332.68" transform="scale(-1 1)" fill="url(#paint2_diamond_6896_1613)" opacity="1" shape-rendering="crispEdges"/><rect x="0" y="0" width="1131.64" height="1332.68" transform="scale(-1)" fill="url(#paint2_diamond_6896_1613)" opacity="1" shape-rendering="crispEdges"/></g></g><path d="M1506.57 111.364C1518.43 106.907 1532.25 101.447 1548.62 94.7951C1607.19 70.9841 1681.78 7.52023 1689.96 0.478882H1745.76C1763.57 0.478882 1778 15.2983 1778 33.579V78.264C1778 96.5447 1763.57 111.364 1745.76 111.364H1506.57Z" data-figma-gradient-fill="{&#34;type&#34;:&#34;GRADIENT_DIAMOND&#34;,&#34;stops&#34;:[{&#34;color&#34;:{&#34;r&#34;:0.11764705926179886,&#34;g&#34;:0.16470588743686676,&#34;b&#34;:0.22745098173618317,&#34;a&#34;:1.0},&#34;position&#34;:0.11477105319499969},{&#34;color&#34;:{&#34;r&#34;:0.0,&#34;g&#34;:0.21176470816135406,&#34;b&#34;:0.61176472902297974,&#34;a&#34;:1.0},&#34;position&#34;:1.0}],&#34;stopsVar&#34;:[{&#34;color&#34;:{&#34;r&#34;:0.11764705926179886,&#34;g&#34;:0.16470588743686676,&#34;b&#34;:0.22745098173618317,&#34;a&#34;:1.0},&#34;position&#34;:0.11477105319499969},{&#34;color&#34;:{&#34;r&#34;:0.0,&#34;g&#34;:0.21176470816135406,&#34;b&#34;:0.61176472902297974,&#34;a&#34;:1.0},&#34;position&#34;:1.0}],&#34;transform&#34;:{&#34;m00&#34;:1751.2949218750,&#34;m01&#34;:81.371070861816406,&#34;m02&#34;:103.28589630126953,&#34;m10&#34;:-216.67230224609375,&#34;m11&#34;:364.55880737304688,&#34;m12&#34;:48.891761779785156},&#34;opacity&#34;:1.0,&#34;blendMode&#34;:&#34;NORMAL&#34;,&#34;visible&#34;:true}"/>
<path d="M787.489 8.38808C787.938 6.12464 788.162 4.99292 788.535 4.76422C788.856 4.56761 789.26 4.56761 789.581 4.76422C789.954 4.99292 790.178 6.12464 790.627 8.38808L794.129 26.0332C794.202 26.4001 794.238 26.5835 794.327 26.7325C794.406 26.8642 794.514 26.976 794.643 27.0592C794.789 27.1532 794.972 27.1956 795.336 27.2802L812.173 31.193C814.126 31.6469 815.103 31.8738 815.321 32.2399C815.509 32.5551 815.509 32.9478 815.321 33.263C815.103 33.6291 814.126 33.856 812.173 34.3099L795.336 38.2227C794.972 38.3073 794.789 38.3497 794.643 38.4437C794.514 38.5269 794.406 38.6387 794.327 38.7704C794.238 38.9194 794.202 39.1028 794.129 39.4697L790.627 57.1148C790.178 59.3783 789.954 60.51 789.581 60.7387C789.26 60.9353 788.856 60.9353 788.535 60.7387C788.162 60.51 787.938 59.3783 787.489 57.1148L783.987 39.4697C783.915 39.1028 783.878 38.9194 783.789 38.7704C783.71 38.6387 783.602 38.5269 783.473 38.4437C783.327 38.3497 783.144 38.3073 782.78 38.2227L765.943 34.3099C763.99 33.856 763.013 33.6291 762.795 33.263C762.608 32.9478 762.608 32.5551 762.795 32.2399C763.013 31.8738 763.99 31.6469 765.943 31.193L782.78 27.2802C783.144 27.1956 783.327 27.1532 783.473 27.0592C783.602 26.976 783.71 26.8642 783.789 26.7325C783.878 26.5835 783.915 26.4001 783.987 26.0332L787.489 8.38808Z" fill="#FFFFFD"/>
<path d="M1034.12 59.4991C1034.57 57.1838 1034.79 56.0262 1035.16 55.7959C1035.49 55.598 1035.89 55.598 1036.21 55.7959C1036.59 56.0262 1036.81 57.1838 1037.26 59.4991L1039.05 68.7676C1039.13 69.1345 1039.16 69.3179 1039.25 69.4672C1039.33 69.5992 1039.44 69.7115 1039.56 69.7952C1039.71 69.89 1039.89 69.9333 1040.26 70.0198L1049.3 72.1739C1051.21 72.6285 1052.17 72.8559 1052.38 73.2207C1052.57 73.535 1052.57 73.9258 1052.38 74.2401C1052.17 74.605 1051.21 74.8323 1049.3 75.2869L1040.26 77.441C1039.89 77.5276 1039.71 77.5709 1039.56 77.6656C1039.44 77.7494 1039.33 77.8616 1039.25 77.9936C1039.16 78.1429 1039.13 78.3264 1039.05 78.6933L1037.26 87.9618C1036.81 90.2771 1036.59 91.4347 1036.21 91.6649C1035.89 91.8628 1035.49 91.8628 1035.16 91.6649C1034.79 91.4347 1034.57 90.2771 1034.12 87.9618L1032.32 78.6933C1032.25 78.3264 1032.22 78.1429 1032.13 77.9936C1032.05 77.8616 1031.94 77.7494 1031.81 77.6656C1031.67 77.5709 1031.49 77.5276 1031.12 77.441L1022.08 75.2869C1020.17 74.8323 1019.21 74.605 1019 74.2401C1018.81 73.9258 1018.81 73.535 1019 73.2207C1019.21 72.8559 1020.17 72.6285 1022.08 72.1739L1031.12 70.0198C1031.49 69.9333 1031.67 69.89 1031.81 69.7952C1031.94 69.7115 1032.05 69.5992 1032.13 69.4672C1032.22 69.3179 1032.25 69.1345 1032.32 68.7676L1034.12 59.4991Z" fill="#FFFFFD"/>
<path d="M1351.58 21.1339C1352.03 18.7683 1352.25 17.5855 1352.63 17.3538C1352.95 17.1547 1353.36 17.1547 1353.68 17.3538C1354.05 17.5855 1354.28 18.7683 1354.73 21.1339L1355.67 26.1189C1355.74 26.4857 1355.77 26.6691 1355.86 26.8187C1355.94 26.9509 1356.05 27.0636 1356.17 27.1479C1356.32 27.2433 1356.5 27.2875 1356.86 27.3759L1362.09 28.6492C1363.96 29.1045 1364.89 29.3322 1365.1 29.6959C1365.29 30.0093 1365.29 30.3983 1365.1 30.7116C1364.89 31.0754 1363.96 31.303 1362.09 31.7583L1356.86 33.0316C1356.5 33.12 1356.32 33.1642 1356.17 33.2596C1356.05 33.3439 1355.94 33.4566 1355.86 33.5888C1355.77 33.7384 1355.74 33.9218 1355.67 34.2886L1354.73 39.2736C1354.28 41.6392 1354.05 42.822 1353.68 43.0537C1353.36 43.2528 1352.95 43.2528 1352.63 43.0537C1352.25 42.822 1352.03 41.6392 1351.58 39.2736L1350.64 34.2886C1350.57 33.9218 1350.53 33.7384 1350.45 33.5888C1350.37 33.4566 1350.26 33.3439 1350.13 33.2596C1349.99 33.1642 1349.81 33.12 1349.44 33.0316L1344.22 31.7583C1342.35 31.303 1341.42 31.0754 1341.2 30.7116C1341.02 30.3983 1341.02 30.0093 1341.2 29.6959C1341.42 29.3322 1342.35 29.1045 1344.22 28.6492L1349.44 27.3759C1349.81 27.2875 1349.99 27.2433 1350.13 27.1479C1350.26 27.0636 1350.37 26.9509 1350.45 26.8187C1350.53 26.6691 1350.57 26.4857 1350.64 26.1189L1351.58 21.1339Z" fill="#FFFFFD"/>
<defs>
<clipPath id="paint0_diamond_6896_1613_clip_path"><path d="M0 33.579C0 15.2983 14.434 0.478882 32.2393 0.478882H1710.3C1728.1 0.478882 1742.54 15.2983 1742.54 33.579V78.264C1742.54 96.5447 1728.1 111.364 1710.3 111.364H32.2394C14.4341 111.364 0 96.5447 0 78.264V33.579Z"/></clipPath><clipPath id="paint1_diamond_6896_1613_clip_path"><path d="M1252.96 1.93749C1336.29 17.511 1461.82 28.3929 1536.63 25.3324C1606.67 22.4671 1675.32 4.1436 1688.45 0.478882H1262.45C1259.15 0.478882 1255.96 0.989283 1252.96 1.93749Z"/></clipPath><clipPath id="paint2_diamond_6896_1613_clip_path"><path d="M1506.57 111.364C1518.43 106.907 1532.25 101.447 1548.62 94.7951C1607.19 70.9841 1681.78 7.52023 1689.96 0.478882H1745.76C1763.57 0.478882 1778 15.2983 1778 33.579V78.264C1778 96.5447 1763.57 111.364 1745.76 111.364H1506.57Z"/></clipPath><linearGradient id="paint0_diamond_6896_1613" x1="0" y1="0" x2="500" y2="500" gradientUnits="userSpaceOnUse">
<stop stop-color="#2B4069"/>
<stop offset="1" stop-color="#0347C6"/>
</linearGradient>
<linearGradient id="paint1_diamond_6896_1613" x1="0" y1="0" x2="500" y2="500" gradientUnits="userSpaceOnUse">
<stop offset="0.114771" stop-color="#1E2A3A"/>
<stop offset="1" stop-color="#00369C"/>
</linearGradient>
<linearGradient id="paint2_diamond_6896_1613" x1="0" y1="0" x2="500" y2="500" gradientUnits="userSpaceOnUse">
<stop offset="0.114771" stop-color="#1E2A3A"/>
<stop offset="1" stop-color="#00369C"/>
</linearGradient>
</defs>
</svg>
