<svg width="1103" height="142" viewBox="0 0 1103 142" fill="none" xmlns="http://www.w3.org/2000/svg">
<g clip-path="url(#paint0_diamond_2652_728_clip_path)" data-figma-skip-parse="true"><g transform="matrix(1.2322 0.216428 -0.246843 1.08037 351.411 -68.5926)"><rect x="0" y="0" width="618.497" height="211.306" fill="url(#paint0_diamond_2652_728)" opacity="1" shape-rendering="crispEdges"/><rect x="0" y="0" width="618.497" height="211.306" transform="scale(1 -1)" fill="url(#paint0_diamond_2652_728)" opacity="1" shape-rendering="crispEdges"/><rect x="0" y="0" width="618.497" height="211.306" transform="scale(-1 1)" fill="url(#paint0_diamond_2652_728)" opacity="1" shape-rendering="crispEdges"/><rect x="0" y="0" width="618.497" height="211.306" transform="scale(-1)" fill="url(#paint0_diamond_2652_728)" opacity="1" shape-rendering="crispEdges"/></g></g><path d="M0 58.96C0 47.9143 8.95431 38.96 20 38.96H1061C1072.05 38.96 1081 47.9143 1081 58.96V85.96C1081 97.0057 1072.05 105.96 1061 105.96H20C8.95432 105.96 0 97.0057 0 85.96V58.96Z" data-figma-gradient-fill="{&#34;type&#34;:&#34;GRADIENT_DIAMOND&#34;,&#34;stops&#34;:[{&#34;color&#34;:{&#34;r&#34;:0.16673327982425690,&#34;g&#34;:0.25094097852706909,&#34;b&#34;:0.40999996662139893,&#34;a&#34;:1.0},&#34;position&#34;:0.0},{&#34;color&#34;:{&#34;r&#34;:0.012944246642291546,&#34;g&#34;:0.27730971574783325,&#34;b&#34;:0.77666664123535156,&#34;a&#34;:1.0},&#34;position&#34;:1.0}],&#34;stopsVar&#34;:[{&#34;color&#34;:{&#34;r&#34;:0.16673327982425690,&#34;g&#34;:0.25094097852706909,&#34;b&#34;:0.40999996662139893,&#34;a&#34;:1.0},&#34;position&#34;:0.0},{&#34;color&#34;:{&#34;r&#34;:0.012944246642291546,&#34;g&#34;:0.27730971574783325,&#34;b&#34;:0.77666664123535156,&#34;a&#34;:1.0},&#34;position&#34;:1.0}],&#34;transform&#34;:{&#34;m00&#34;:2464.4055175781250,&#34;m01&#34;:-493.68542480468750,&#34;m02&#34;:-633.9484863281250,&#34;m10&#34;:432.85525512695312,&#34;m11&#34;:2160.7497558593750,&#34;m12&#34;:-1365.3951416015625},&#34;opacity&#34;:1.0,&#34;blendMode&#34;:&#34;NORMAL&#34;,&#34;visible&#34;:true}"/>
<g clip-path="url(#paint1_diamond_2652_728_clip_path)" data-figma-skip-parse="true"><g transform="matrix(0.543217 -0.0654598 0.0252397 0.110138 632.531 112.891)"><rect x="0" y="0" width="1132.48" height="1336.58" fill="url(#paint1_diamond_2652_728)" opacity="1" shape-rendering="crispEdges"/><rect x="0" y="0" width="1132.48" height="1336.58" transform="scale(1 -1)" fill="url(#paint1_diamond_2652_728)" opacity="1" shape-rendering="crispEdges"/><rect x="0" y="0" width="1132.48" height="1336.58" transform="scale(-1 1)" fill="url(#paint1_diamond_2652_728)" opacity="1" shape-rendering="crispEdges"/><rect x="0" y="0" width="1132.48" height="1336.58" transform="scale(-1)" fill="url(#paint1_diamond_2652_728)" opacity="1" shape-rendering="crispEdges"/></g></g><path d="M777.286 39.8413C828.978 49.2512 906.857 55.8264 953.265 53.9772C996.714 52.2459 1039.3 41.1743 1047.45 38.96H783.176C781.126 38.96 779.148 39.2684 777.286 39.8413Z" data-figma-gradient-fill="{&#34;type&#34;:&#34;GRADIENT_DIAMOND&#34;,&#34;stops&#34;:[{&#34;color&#34;:{&#34;r&#34;:0.11764705926179886,&#34;g&#34;:0.16470588743686676,&#34;b&#34;:0.22745098173618317,&#34;a&#34;:1.0},&#34;position&#34;:0.11477105319499969},{&#34;color&#34;:{&#34;r&#34;:0.0,&#34;g&#34;:0.21176470816135406,&#34;b&#34;:0.61176472902297974,&#34;a&#34;:1.0},&#34;position&#34;:1.0}],&#34;stopsVar&#34;:[{&#34;color&#34;:{&#34;r&#34;:0.11764705926179886,&#34;g&#34;:0.16470588743686676,&#34;b&#34;:0.22745098173618317,&#34;a&#34;:1.0},&#34;position&#34;:0.11477105319499969},{&#34;color&#34;:{&#34;r&#34;:0.0,&#34;g&#34;:0.21176470816135406,&#34;b&#34;:0.61176472902297974,&#34;a&#34;:1.0},&#34;position&#34;:1.0}],&#34;transform&#34;:{&#34;m00&#34;:1086.4332275390625,&#34;m01&#34;:50.479354858398438,&#34;m02&#34;:64.074432373046875,&#34;m10&#34;:-130.91954040527344,&#34;m11&#34;:220.27674865722656,&#34;m12&#34;:68.212394714355469},&#34;opacity&#34;:1.0,&#34;blendMode&#34;:&#34;NORMAL&#34;,&#34;visible&#34;:true}"/>
<g clip-path="url(#paint2_diamond_2652_728_clip_path)" data-figma-skip-parse="true"><g transform="matrix(0.543217 -0.0654598 0.0252397 0.110138 632.531 112.891)"><rect x="0" y="0" width="1132.48" height="1336.58" fill="url(#paint2_diamond_2652_728)" opacity="1" shape-rendering="crispEdges"/><rect x="0" y="0" width="1132.48" height="1336.58" transform="scale(1 -1)" fill="url(#paint2_diamond_2652_728)" opacity="1" shape-rendering="crispEdges"/><rect x="0" y="0" width="1132.48" height="1336.58" transform="scale(-1 1)" fill="url(#paint2_diamond_2652_728)" opacity="1" shape-rendering="crispEdges"/><rect x="0" y="0" width="1132.48" height="1336.58" transform="scale(-1)" fill="url(#paint2_diamond_2652_728)" opacity="1" shape-rendering="crispEdges"/></g></g><path d="M934.617 105.96C941.972 103.267 950.548 99.9679 960.699 95.9485C997.034 81.5612 1043.31 43.2145 1048.38 38.96H1083C1094.05 38.96 1103 47.9143 1103 58.96V85.96C1103 97.0057 1094.05 105.96 1083 105.96H934.617Z" data-figma-gradient-fill="{&#34;type&#34;:&#34;GRADIENT_DIAMOND&#34;,&#34;stops&#34;:[{&#34;color&#34;:{&#34;r&#34;:0.11764705926179886,&#34;g&#34;:0.16470588743686676,&#34;b&#34;:0.22745098173618317,&#34;a&#34;:1.0},&#34;position&#34;:0.11477105319499969},{&#34;color&#34;:{&#34;r&#34;:0.0,&#34;g&#34;:0.21176470816135406,&#34;b&#34;:0.61176472902297974,&#34;a&#34;:1.0},&#34;position&#34;:1.0}],&#34;stopsVar&#34;:[{&#34;color&#34;:{&#34;r&#34;:0.11764705926179886,&#34;g&#34;:0.16470588743686676,&#34;b&#34;:0.22745098173618317,&#34;a&#34;:1.0},&#34;position&#34;:0.11477105319499969},{&#34;color&#34;:{&#34;r&#34;:0.0,&#34;g&#34;:0.21176470816135406,&#34;b&#34;:0.61176472902297974,&#34;a&#34;:1.0},&#34;position&#34;:1.0}],&#34;transform&#34;:{&#34;m00&#34;:1086.4332275390625,&#34;m01&#34;:50.479354858398438,&#34;m02&#34;:64.074432373046875,&#34;m10&#34;:-130.91954040527344,&#34;m11&#34;:220.27674865722656,&#34;m12&#34;:68.212394714355469},&#34;opacity&#34;:1.0,&#34;blendMode&#34;:&#34;NORMAL&#34;,&#34;visible&#34;:true}"/>
<path d="M488.5 56.96C488.5 56.96 551.5 37.4601 584 51.4601C616.5 65.4601 642.5 83.46 642.5 83.46" stroke="#ECF3FF" stroke-width="0.25" stroke-linejoin="round"/>
<g filter="url(#filter0_d_2652_728)">
<path d="M487.932 46.6556C488.382 44.447 488.607 43.3428 488.979 43.1158C489.299 42.9206 489.701 42.9206 490.021 43.1158C490.393 43.3428 490.618 44.447 491.068 46.6556L492.564 53.9999C492.639 54.3667 492.676 54.55 492.766 54.6987C492.846 54.83 492.955 54.9413 493.084 55.0238C493.231 55.1171 493.414 55.1584 493.779 55.241L501.106 56.8994C503.107 57.3526 504.108 57.5791 504.328 57.9464C504.518 58.2626 504.518 58.6573 504.328 58.9735C504.108 59.3408 503.107 59.5674 501.106 60.0205L493.779 61.6789C493.414 61.7615 493.231 61.8028 493.084 61.8962C492.955 61.9787 492.846 62.0899 492.766 62.2213C492.676 62.3699 492.639 62.5533 492.564 62.92L491.068 70.2643C490.618 72.4729 490.393 73.5772 490.021 73.8042C489.701 73.9994 489.299 73.9994 488.979 73.8042C488.607 73.5772 488.382 72.4729 487.932 70.2643L486.436 62.92C486.361 62.5533 486.324 62.3699 486.234 62.2213C486.154 62.0899 486.045 61.9787 485.916 61.8962C485.769 61.8028 485.586 61.7615 485.221 61.6789L477.894 60.0205C475.893 59.5674 474.892 59.3408 474.672 58.9735C474.482 58.6573 474.482 58.2626 474.672 57.9464C474.892 57.5791 475.893 57.3526 477.894 56.8994L485.221 55.241C485.586 55.1584 485.769 55.1171 485.916 55.0238C486.045 54.9413 486.154 54.83 486.234 54.6987C486.324 54.55 486.361 54.3667 486.436 53.9999L487.932 46.6556Z" fill="#FFFFFD"/>
</g>
<path d="M642.5 83.46C642.5 83.46 649.5 103.96 744.5 103.96C839.5 103.96 839.5 55.96 839.5 55.96" stroke="#24C6FF" stroke-width="0.25"/>
<path d="M640.931 77.6131C641.38 75.354 641.605 74.2244 641.977 73.9958C642.298 73.7993 642.702 73.7993 643.023 73.9958C643.395 74.2244 643.62 75.354 644.069 77.6131L644.508 79.8209C644.581 80.1878 644.618 80.3712 644.707 80.5202C644.786 80.6519 644.894 80.7636 645.023 80.8467C645.169 80.9407 645.352 80.983 645.716 81.0675L648.279 81.662C650.236 82.1158 651.215 82.3427 651.433 82.7089C651.621 83.0242 651.621 83.417 651.433 83.7323C651.215 84.0985 650.236 84.3254 648.279 84.7792L645.716 85.3737C645.352 85.4582 645.169 85.5005 645.023 85.5945C644.894 85.6776 644.786 85.7893 644.707 85.921C644.618 86.07 644.581 86.2534 644.508 86.6203L644.069 88.828C643.62 91.0872 643.395 92.2168 643.023 92.4454C642.702 92.6419 642.298 92.6419 641.977 92.4454C641.605 92.2168 641.38 91.0872 640.931 88.828L640.492 86.6203C640.419 86.2534 640.382 86.07 640.293 85.921C640.214 85.7893 640.106 85.6776 639.977 85.5945C639.831 85.5005 639.648 85.4582 639.284 85.3737L636.721 84.7792C634.764 84.3254 633.785 84.0985 633.567 83.7323C633.379 83.417 633.379 83.0242 633.567 82.7089C633.785 82.3427 634.764 82.1158 636.721 81.662L639.284 81.0675C639.648 80.983 639.831 80.9407 639.977 80.8467C640.106 80.7636 640.214 80.6519 640.293 80.5202C640.382 80.3712 640.419 80.1878 640.492 79.8209L640.931 77.6131Z" fill="#FFFFFD"/>
<path d="M837.95 53.4975C838.338 51.4998 838.532 50.5009 838.828 50.2706C839.189 49.9893 839.695 49.9893 840.057 50.2706C840.352 50.5009 840.546 51.4998 840.935 53.4975C840.996 53.8154 841.027 53.9743 841.098 54.1068C841.185 54.2695 841.315 54.4051 841.474 54.4985C841.603 54.5745 841.761 54.6119 842.076 54.6867L842.383 54.7596C844.298 55.2141 845.256 55.4414 845.472 55.8064C845.658 56.1208 845.658 56.5119 845.472 56.8263C845.256 57.1913 844.298 57.4186 842.383 57.8731L842.076 57.946C841.761 58.0208 841.603 58.0582 841.474 58.1343C841.315 58.2277 841.185 58.3632 841.098 58.5259C841.027 58.6584 840.996 58.8174 840.935 59.1352C840.546 61.1329 840.352 62.1318 840.057 62.3621C839.695 62.6434 839.189 62.6434 838.828 62.3621C838.532 62.1318 838.338 61.1329 837.95 59.1352C837.888 58.8174 837.857 58.6584 837.787 58.5259C837.7 58.3632 837.57 58.2277 837.411 58.1343C837.281 58.0582 837.124 58.0208 836.809 57.946L836.501 57.8731C834.586 57.4186 833.629 57.1913 833.412 56.8263C833.226 56.5119 833.226 56.1208 833.412 55.8064C833.629 55.4414 834.586 55.2141 836.501 54.7596L836.809 54.6867C837.124 54.6119 837.281 54.5745 837.411 54.4985C837.57 54.4051 837.7 54.2695 837.787 54.1068C837.857 53.9743 837.888 53.8154 837.95 53.4975Z" fill="#FFFFFD"/>
<defs>
<clipPath id="paint0_diamond_2652_728_clip_path"><path d="M0 58.96C0 47.9143 8.95431 38.96 20 38.96H1061C1072.05 38.96 1081 47.9143 1081 58.96V85.96C1081 97.0057 1072.05 105.96 1061 105.96H20C8.95432 105.96 0 97.0057 0 85.96V58.96Z"/></clipPath><clipPath id="paint1_diamond_2652_728_clip_path"><path d="M777.286 39.8413C828.978 49.2512 906.857 55.8264 953.265 53.9772C996.714 52.2459 1039.3 41.1743 1047.45 38.96H783.176C781.126 38.96 779.148 39.2684 777.286 39.8413Z"/></clipPath><clipPath id="paint2_diamond_2652_728_clip_path"><path d="M934.617 105.96C941.972 103.267 950.548 99.9679 960.699 95.9485C997.034 81.5612 1043.31 43.2145 1048.38 38.96H1083C1094.05 38.96 1103 47.9143 1103 58.96V85.96C1103 97.0057 1094.05 105.96 1083 105.96H934.617Z"/></clipPath><filter id="filter0_d_2652_728" x="461.53" y="37.9695" width="47.9404" height="48.981" filterUnits="userSpaceOnUse" color-interpolation-filters="sRGB">
<feFlood flood-opacity="0" result="BackgroundImageFix"/>
<feColorMatrix in="SourceAlpha" type="matrix" values="0 0 0 0 0 0 0 0 0 0 0 0 0 0 0 0 0 0 127 0" result="hardAlpha"/>
<feOffset dx="-4" dy="4"/>
<feGaussianBlur stdDeviation="4.5"/>
<feComposite in2="hardAlpha" operator="out"/>
<feColorMatrix type="matrix" values="0 0 0 0 0 0 0 0 0 0 0 0 0 0 0 0 0 0 0.25 0"/>
<feBlend mode="normal" in2="BackgroundImageFix" result="effect1_dropShadow_2652_728"/>
<feBlend mode="normal" in="SourceGraphic" in2="effect1_dropShadow_2652_728" result="shape"/>
</filter>
<linearGradient id="paint0_diamond_2652_728" x1="0" y1="0" x2="500" y2="500" gradientUnits="userSpaceOnUse">
<stop stop-color="#2B4069"/>
<stop offset="1" stop-color="#0347C6"/>
</linearGradient>
<linearGradient id="paint1_diamond_2652_728" x1="0" y1="0" x2="500" y2="500" gradientUnits="userSpaceOnUse">
<stop offset="0.114771" stop-color="#1E2A3A"/>
<stop offset="1" stop-color="#00369C"/>
</linearGradient>
<linearGradient id="paint2_diamond_2652_728" x1="0" y1="0" x2="500" y2="500" gradientUnits="userSpaceOnUse">
<stop offset="0.114771" stop-color="#1E2A3A"/>
<stop offset="1" stop-color="#00369C"/>
</linearGradient>
</defs>
</svg>
