<svg width="1103" height="69" viewBox="0 0 1103 69" fill="none" xmlns="http://www.w3.org/2000/svg">
<g clip-path="url(#paint0_diamond_2330_2_clip_path)" data-figma-skip-parse="true"><g transform="matrix(1.2322 0.216428 -0.246843 1.08037 351.411 -105.593)"><rect x="0" y="0" width="618.497" height="211.306" fill="url(#paint0_diamond_2330_2)" opacity="1" shape-rendering="crispEdges"/><rect x="0" y="0" width="618.497" height="211.306" transform="scale(1 -1)" fill="url(#paint0_diamond_2330_2)" opacity="1" shape-rendering="crispEdges"/><rect x="0" y="0" width="618.497" height="211.306" transform="scale(-1 1)" fill="url(#paint0_diamond_2330_2)" opacity="1" shape-rendering="crispEdges"/><rect x="0" y="0" width="618.497" height="211.306" transform="scale(-1)" fill="url(#paint0_diamond_2330_2)" opacity="1" shape-rendering="crispEdges"/></g></g><path d="M0 21.96C0 10.9143 8.95431 1.95996 20 1.95996H1061C1072.05 1.95996 1081 10.9143 1081 21.96V48.96C1081 60.0057 1072.05 68.96 1061 68.96H20C8.95432 68.96 0 60.0057 0 48.96V21.96Z" data-figma-gradient-fill="{&#34;type&#34;:&#34;GRADIENT_DIAMOND&#34;,&#34;stops&#34;:[{&#34;color&#34;:{&#34;r&#34;:0.16673327982425690,&#34;g&#34;:0.25094097852706909,&#34;b&#34;:0.40999996662139893,&#34;a&#34;:1.0},&#34;position&#34;:0.0},{&#34;color&#34;:{&#34;r&#34;:0.012944246642291546,&#34;g&#34;:0.27730971574783325,&#34;b&#34;:0.77666664123535156,&#34;a&#34;:1.0},&#34;position&#34;:1.0}],&#34;stopsVar&#34;:[{&#34;color&#34;:{&#34;r&#34;:0.16673327982425690,&#34;g&#34;:0.25094097852706909,&#34;b&#34;:0.40999996662139893,&#34;a&#34;:1.0},&#34;position&#34;:0.0},{&#34;color&#34;:{&#34;r&#34;:0.012944246642291546,&#34;g&#34;:0.27730971574783325,&#34;b&#34;:0.77666664123535156,&#34;a&#34;:1.0},&#34;position&#34;:1.0}],&#34;transform&#34;:{&#34;m00&#34;:2464.4055175781250,&#34;m01&#34;:-493.68542480468750,&#34;m02&#34;:-633.9484863281250,&#34;m10&#34;:432.85525512695312,&#34;m11&#34;:2160.7497558593750,&#34;m12&#34;:-1402.3951416015625},&#34;opacity&#34;:1.0,&#34;blendMode&#34;:&#34;NORMAL&#34;,&#34;visible&#34;:true}"/>
<g clip-path="url(#paint1_diamond_2330_2_clip_path)" data-figma-skip-parse="true"><g transform="matrix(0.543217 -0.0654598 0.0252397 0.110138 632.531 75.891)"><rect x="0" y="0" width="1132.48" height="1336.58" fill="url(#paint1_diamond_2330_2)" opacity="1" shape-rendering="crispEdges"/><rect x="0" y="0" width="1132.48" height="1336.58" transform="scale(1 -1)" fill="url(#paint1_diamond_2330_2)" opacity="1" shape-rendering="crispEdges"/><rect x="0" y="0" width="1132.48" height="1336.58" transform="scale(-1 1)" fill="url(#paint1_diamond_2330_2)" opacity="1" shape-rendering="crispEdges"/><rect x="0" y="0" width="1132.48" height="1336.58" transform="scale(-1)" fill="url(#paint1_diamond_2330_2)" opacity="1" shape-rendering="crispEdges"/></g></g><path d="M777.286 2.84129C828.978 12.2512 906.857 18.8264 953.265 16.9772C996.714 15.2459 1039.3 4.17429 1047.45 1.95996H783.176C781.126 1.95996 779.148 2.26836 777.286 2.84129Z" data-figma-gradient-fill="{&#34;type&#34;:&#34;GRADIENT_DIAMOND&#34;,&#34;stops&#34;:[{&#34;color&#34;:{&#34;r&#34;:0.11764705926179886,&#34;g&#34;:0.16470588743686676,&#34;b&#34;:0.22745098173618317,&#34;a&#34;:1.0},&#34;position&#34;:0.11477105319499969},{&#34;color&#34;:{&#34;r&#34;:0.0,&#34;g&#34;:0.21176470816135406,&#34;b&#34;:0.61176472902297974,&#34;a&#34;:1.0},&#34;position&#34;:1.0}],&#34;stopsVar&#34;:[{&#34;color&#34;:{&#34;r&#34;:0.11764705926179886,&#34;g&#34;:0.16470588743686676,&#34;b&#34;:0.22745098173618317,&#34;a&#34;:1.0},&#34;position&#34;:0.11477105319499969},{&#34;color&#34;:{&#34;r&#34;:0.0,&#34;g&#34;:0.21176470816135406,&#34;b&#34;:0.61176472902297974,&#34;a&#34;:1.0},&#34;position&#34;:1.0}],&#34;transform&#34;:{&#34;m00&#34;:1086.4332275390625,&#34;m01&#34;:50.479354858398438,&#34;m02&#34;:64.074432373046875,&#34;m10&#34;:-130.91954040527344,&#34;m11&#34;:220.27674865722656,&#34;m12&#34;:31.212392807006836},&#34;opacity&#34;:1.0,&#34;blendMode&#34;:&#34;NORMAL&#34;,&#34;visible&#34;:true}"/>
<g clip-path="url(#paint2_diamond_2330_2_clip_path)" data-figma-skip-parse="true"><g transform="matrix(0.543217 -0.0654598 0.0252397 0.110138 632.531 75.891)"><rect x="0" y="0" width="1132.48" height="1336.58" fill="url(#paint2_diamond_2330_2)" opacity="1" shape-rendering="crispEdges"/><rect x="0" y="0" width="1132.48" height="1336.58" transform="scale(1 -1)" fill="url(#paint2_diamond_2330_2)" opacity="1" shape-rendering="crispEdges"/><rect x="0" y="0" width="1132.48" height="1336.58" transform="scale(-1 1)" fill="url(#paint2_diamond_2330_2)" opacity="1" shape-rendering="crispEdges"/><rect x="0" y="0" width="1132.48" height="1336.58" transform="scale(-1)" fill="url(#paint2_diamond_2330_2)" opacity="1" shape-rendering="crispEdges"/></g></g><path d="M934.617 68.96C941.972 66.267 950.548 62.9679 960.699 58.9485C997.034 44.5612 1043.31 6.21454 1048.38 1.95996H1083C1094.05 1.95996 1103 10.9143 1103 21.96V48.96C1103 60.0057 1094.05 68.96 1083 68.96H934.617Z" data-figma-gradient-fill="{&#34;type&#34;:&#34;GRADIENT_DIAMOND&#34;,&#34;stops&#34;:[{&#34;color&#34;:{&#34;r&#34;:0.11764705926179886,&#34;g&#34;:0.16470588743686676,&#34;b&#34;:0.22745098173618317,&#34;a&#34;:1.0},&#34;position&#34;:0.11477105319499969},{&#34;color&#34;:{&#34;r&#34;:0.0,&#34;g&#34;:0.21176470816135406,&#34;b&#34;:0.61176472902297974,&#34;a&#34;:1.0},&#34;position&#34;:1.0}],&#34;stopsVar&#34;:[{&#34;color&#34;:{&#34;r&#34;:0.11764705926179886,&#34;g&#34;:0.16470588743686676,&#34;b&#34;:0.22745098173618317,&#34;a&#34;:1.0},&#34;position&#34;:0.11477105319499969},{&#34;color&#34;:{&#34;r&#34;:0.0,&#34;g&#34;:0.21176470816135406,&#34;b&#34;:0.61176472902297974,&#34;a&#34;:1.0},&#34;position&#34;:1.0}],&#34;transform&#34;:{&#34;m00&#34;:1086.4332275390625,&#34;m01&#34;:50.479354858398438,&#34;m02&#34;:64.074432373046875,&#34;m10&#34;:-130.91954040527344,&#34;m11&#34;:220.27674865722656,&#34;m12&#34;:31.212392807006836},&#34;opacity&#34;:1.0,&#34;blendMode&#34;:&#34;NORMAL&#34;,&#34;visible&#34;:true}"/>
<path d="M488.5 19.96C488.5 19.96 551.5 0.460062 584 14.4601C616.5 28.4601 642.5 46.46 642.5 46.46" stroke="#ECF3FF" stroke-width="0.25" stroke-linejoin="round"/>
<g filter="url(#filter0_d_2330_2)">
<path d="M487.932 9.6556C488.382 7.44704 488.607 6.34275 488.979 6.11576C489.299 5.92057 489.701 5.92057 490.021 6.11576C490.393 6.34275 490.618 7.44704 491.068 9.65561L492.564 16.9999C492.639 17.3667 492.676 17.55 492.766 17.6987C492.846 17.83 492.955 17.9413 493.084 18.0238C493.231 18.1171 493.414 18.1584 493.779 18.241L501.106 19.8994C503.107 20.3526 504.108 20.5791 504.328 20.9464C504.518 21.2626 504.518 21.6573 504.328 21.9735C504.108 22.3408 503.107 22.5674 501.106 23.0205L493.779 24.6789C493.414 24.7615 493.231 24.8028 493.084 24.8962C492.955 24.9787 492.846 25.0899 492.766 25.2213C492.676 25.3699 492.639 25.5533 492.564 25.92L491.068 33.2643C490.618 35.4729 490.393 36.5772 490.021 36.8042C489.701 36.9994 489.299 36.9994 488.979 36.8042C488.607 36.5772 488.382 35.4729 487.932 33.2643L486.436 25.92C486.361 25.5533 486.324 25.3699 486.234 25.2213C486.154 25.0899 486.045 24.9787 485.916 24.8962C485.769 24.8028 485.586 24.7615 485.221 24.6789L477.894 23.0205C475.893 22.5674 474.892 22.3408 474.672 21.9735C474.482 21.6573 474.482 21.2626 474.672 20.9464C474.892 20.5791 475.893 20.3526 477.894 19.8994L485.221 18.241C485.586 18.1584 485.769 18.1171 485.916 18.0238C486.045 17.9413 486.154 17.83 486.234 17.6987C486.324 17.55 486.361 17.3667 486.436 16.9999L487.932 9.6556Z" fill="#FFFFFD"/>
</g>
<path d="M642.5 46.46C642.5 46.46 649.5 66.96 744.5 66.9599C839.5 66.9599 839.5 18.96 839.5 18.96" stroke="#24C6FF" stroke-width="0.25"/>
<path d="M640.931 40.6131C641.38 38.354 641.605 37.2244 641.977 36.9958C642.298 36.7993 642.702 36.7993 643.023 36.9958C643.395 37.2244 643.62 38.354 644.069 40.6131L644.508 42.8209C644.581 43.1878 644.618 43.3712 644.707 43.5202C644.786 43.6519 644.894 43.7636 645.023 43.8467C645.169 43.9407 645.352 43.983 645.716 44.0675L648.279 44.662C650.236 45.1158 651.215 45.3427 651.433 45.7089C651.621 46.0242 651.621 46.417 651.433 46.7323C651.215 47.0985 650.236 47.3254 648.279 47.7792L645.716 48.3737C645.352 48.4582 645.169 48.5005 645.023 48.5945C644.894 48.6776 644.786 48.7893 644.707 48.921C644.618 49.07 644.581 49.2534 644.508 49.6203L644.069 51.828C643.62 54.0872 643.395 55.2168 643.023 55.4454C642.702 55.6419 642.298 55.6419 641.977 55.4454C641.605 55.2168 641.38 54.0872 640.931 51.828L640.492 49.6203C640.419 49.2534 640.382 49.07 640.293 48.921C640.214 48.7893 640.106 48.6776 639.977 48.5945C639.831 48.5005 639.648 48.4582 639.284 48.3737L636.721 47.7792C634.764 47.3254 633.785 47.0985 633.567 46.7323C633.379 46.417 633.379 46.0242 633.567 45.7089C633.785 45.3427 634.764 45.1158 636.721 44.662L639.284 44.0675C639.648 43.983 639.831 43.9407 639.977 43.8467C640.106 43.7636 640.214 43.6519 640.293 43.5202C640.382 43.3712 640.419 43.1878 640.492 42.8209L640.931 40.6131Z" fill="#FFFFFD"/>
<path d="M837.95 16.4975C838.338 14.4998 838.532 13.5009 838.828 13.2706C839.189 12.9893 839.695 12.9893 840.057 13.2706C840.352 13.5009 840.546 14.4998 840.935 16.4975C840.996 16.8154 841.027 16.9743 841.098 17.1068C841.185 17.2695 841.315 17.4051 841.474 17.4985C841.603 17.5745 841.761 17.6119 842.076 17.6867L842.383 17.7596C844.298 18.2141 845.256 18.4414 845.472 18.8064C845.658 19.1208 845.658 19.5119 845.472 19.8263C845.256 20.1913 844.298 20.4186 842.383 20.8731L842.076 20.946C841.761 21.0208 841.603 21.0582 841.474 21.1343C841.315 21.2277 841.185 21.3632 841.098 21.5259C841.027 21.6584 840.996 21.8174 840.935 22.1352C840.546 24.1329 840.352 25.1318 840.057 25.3621C839.695 25.6434 839.189 25.6434 838.828 25.3621C838.532 25.1318 838.338 24.1329 837.95 22.1352C837.888 21.8174 837.857 21.6584 837.787 21.5259C837.7 21.3632 837.57 21.2277 837.411 21.1343C837.281 21.0582 837.124 21.0208 836.809 20.946L836.501 20.8731C834.586 20.4186 833.629 20.1913 833.412 19.8263C833.226 19.5119 833.226 19.1208 833.412 18.8064C833.629 18.4414 834.586 18.2141 836.501 17.7596L836.809 17.6867C837.124 17.6119 837.281 17.5745 837.411 17.4985C837.57 17.4051 837.7 17.2695 837.787 17.1068C837.857 16.9743 837.888 16.8154 837.95 16.4975Z" fill="#FFFFFD"/>
<defs>
<clipPath id="paint0_diamond_2330_2_clip_path"><path d="M0 21.96C0 10.9143 8.95431 1.95996 20 1.95996H1061C1072.05 1.95996 1081 10.9143 1081 21.96V48.96C1081 60.0057 1072.05 68.96 1061 68.96H20C8.95432 68.96 0 60.0057 0 48.96V21.96Z"/></clipPath><clipPath id="paint1_diamond_2330_2_clip_path"><path d="M777.286 2.84129C828.978 12.2512 906.857 18.8264 953.265 16.9772C996.714 15.2459 1039.3 4.17429 1047.45 1.95996H783.176C781.126 1.95996 779.148 2.26836 777.286 2.84129Z"/></clipPath><clipPath id="paint2_diamond_2330_2_clip_path"><path d="M934.617 68.96C941.972 66.267 950.548 62.9679 960.699 58.9485C997.034 44.5612 1043.31 6.21454 1048.38 1.95996H1083C1094.05 1.95996 1103 10.9143 1103 21.96V48.96C1103 60.0057 1094.05 68.96 1083 68.96H934.617Z"/></clipPath><filter id="filter0_d_2330_2" x="461.53" y="0.969482" width="47.9404" height="48.981" filterUnits="userSpaceOnUse" color-interpolation-filters="sRGB">
<feFlood flood-opacity="0" result="BackgroundImageFix"/>
<feColorMatrix in="SourceAlpha" type="matrix" values="0 0 0 0 0 0 0 0 0 0 0 0 0 0 0 0 0 0 127 0" result="hardAlpha"/>
<feOffset dx="-4" dy="4"/>
<feGaussianBlur stdDeviation="4.5"/>
<feComposite in2="hardAlpha" operator="out"/>
<feColorMatrix type="matrix" values="0 0 0 0 0 0 0 0 0 0 0 0 0 0 0 0 0 0 0.25 0"/>
<feBlend mode="normal" in2="BackgroundImageFix" result="effect1_dropShadow_2330_2"/>
<feBlend mode="normal" in="SourceGraphic" in2="effect1_dropShadow_2330_2" result="shape"/>
</filter>
<linearGradient id="paint0_diamond_2330_2" x1="0" y1="0" x2="500" y2="500" gradientUnits="userSpaceOnUse">
<stop stop-color="#2B4069"/>
<stop offset="1" stop-color="#0347C6"/>
</linearGradient>
<linearGradient id="paint1_diamond_2330_2" x1="0" y1="0" x2="500" y2="500" gradientUnits="userSpaceOnUse">
<stop offset="0.114771" stop-color="#1E2A3A"/>
<stop offset="1" stop-color="#00369C"/>
</linearGradient>
<linearGradient id="paint2_diamond_2330_2" x1="0" y1="0" x2="500" y2="500" gradientUnits="userSpaceOnUse">
<stop offset="0.114771" stop-color="#1E2A3A"/>
<stop offset="1" stop-color="#00369C"/>
</linearGradient>
</defs>
</svg>
