<svg width="30" height="30" viewBox="0 0 30 30" fill="none" xmlns="http://www.w3.org/2000/svg">
<path fill-rule="evenodd" clip-rule="evenodd" d="M2.90618 0.458196C1.3221 1.18969 0.185674 2.72553 0.0207017 4.54193L4.2218 3.16209L2.90618 0.458196ZM0 6.5284V25C0 27.7614 2.23858 30 5 30H18.8821L18.8608 29.8294L4.22181 26.1785L18.8608 26.1785L15 13.8559L21.7373 23.644L30 14.2161V5C30 2.23858 27.7614 0 25 0H13.7732L9.85751 3.16209L20.2118 15.6356L7.88131 6.73727L0.00930261 22.5355L4.22181 5.9587L0 6.5284ZM9.4363 0H5.6561L6.6762 1.3825L9.4363 0ZM30 15.8603L25.1695 26.1785L28.0785 28.9402C29.2482 28.025 30 26.6003 30 25V15.8603Z" fill="#00369C"/>
</svg>
