<svg width="30" height="30" viewBox="0 0 30 30" fill="none" xmlns="http://www.w3.org/2000/svg">
<rect width="30" height="30" rx="5" fill="white"/>
<path d="M25 0C27.7614 3.22128e-07 30 2.23858 30 5V14.2148L21.7373 23.6445L15 13.8555L18.8604 26.1787H4.22168L18.8604 29.8291L18.8818 30H5C2.23858 30 8.05347e-08 27.7614 0 25V6.52832L4.22168 5.95898L0.00976562 22.5352L7.88086 6.7373L20.2119 15.6357L9.85742 3.16211L13.7725 0H25ZM30 25C30 26.6003 29.2468 28.0233 28.0771 28.9385L25.1699 26.1787L30 15.8594V25ZM4.22168 3.16211L0.0214844 4.54102C0.186769 2.72514 1.32258 1.19039 2.90625 0.458984L4.22168 3.16211ZM6.67578 1.38281L5.65527 0H9.43652L6.67578 1.38281Z" fill="#00369C"/>
</svg>
